<?xml version="1.0" encoding="UTF-8"?>
<!DOCTYPE svg PUBLIC "-//W3C//DTD SVG 1.1//EN" "http://www.w3.org/Graphics/SVG/1.1/DTD/svg11.dtd">
<svg xmlns="http://www.w3.org/2000/svg" version="1.1" width="1000px" height="1000px" style="shape-rendering:geometricPrecision; text-rendering:geometricPrecision; image-rendering:optimizeQuality; fill-rule:evenodd; clip-rule:evenodd" xmlns:xlink="http://www.w3.org/1999/xlink">
<g><path style="opacity:0.997" fill="#191a23" d="M 745.5,177.5 C 748.128,179.488 750.795,181.488 753.5,183.5C 763.5,191.5 772.5,200.5 780.5,210.5C 785.958,217.94 790.958,225.607 795.5,233.5C 819.025,283.18 825.525,335.18 815,389.5C 797.227,474.701 778.56,559.701 759,644.5C 748.485,683.909 732.652,720.909 711.5,755.5C 709.265,758.291 707.265,761.291 705.5,764.5C 690.406,784.595 672.74,801.928 652.5,816.5C 649.79,818.232 647.124,819.899 644.5,821.5C 618.793,837.129 591.126,847.962 561.5,854C 543.562,856.801 525.562,859.134 507.5,861C 411.518,862.473 315.518,862.973 219.5,862.5C 219.5,824.5 219.5,786.5 219.5,748.5C 241.843,748.833 264.177,748.5 286.5,747.5C 288.491,740.039 290.158,732.539 291.5,725C 290.529,723.519 289.196,722.685 287.5,722.5C 279.34,716.918 271.006,711.585 262.5,706.5C 254.34,700.918 246.006,695.585 237.5,690.5C 231.434,687.03 225.934,682.697 221,677.5C 219.3,674.533 218.133,671.367 217.5,668C 220.065,659.369 224.065,651.536 229.5,644.5C 235.165,635.837 240.832,627.17 246.5,618.5C 252.092,610.311 257.426,601.978 262.5,593.5C 268.976,585.358 274.643,576.691 279.5,567.5C 282.826,562.505 286.159,557.505 289.5,552.5C 291.019,549.979 292.686,547.479 294.5,545C 267.893,535.57 241.226,527.237 214.5,520C 205.156,516.663 195.822,513.33 186.5,510C 184.622,508.457 183.122,506.624 182,504.5C 181.333,498.5 181.333,492.5 182,486.5C 185.462,482.196 189.629,478.862 194.5,476.5C 234.013,454.243 273.68,432.243 313.5,410.5C 318.841,407.497 324.175,404.497 329.5,401.5C 338.306,397.265 346.639,392.265 354.5,386.5C 358.201,384.559 361.701,382.226 365,379.5C 373.297,337.946 382.13,296.28 391.5,254.5C 387.878,253.675 384.211,253.175 380.5,253C 364.503,252.5 348.503,252.333 332.5,252.5C 332.5,214.167 332.5,175.833 332.5,137.5C 430.834,137.333 529.167,137.5 627.5,138C 670.378,141.126 709.711,154.292 745.5,177.5 Z M 607.5,692.5 C 606.922,691.453 606.256,691.62 605.5,693C 605.728,693.399 606.062,693.565 606.5,693.5C 601.871,699.797 596.538,705.463 590.5,710.5C 589.922,709.453 589.256,709.62 588.5,711C 588.728,711.399 589.062,711.565 589.5,711.5C 587.14,713.853 584.473,715.853 581.5,717.5C 576.438,721.221 571.104,724.555 565.5,727.5C 546.32,736.832 525.987,742.665 504.5,745C 483.199,746.675 461.866,747.508 440.5,747.5C 429.74,747.645 419.073,747.145 408.5,746C 415.404,714.881 422.237,683.714 429,652.5C 430.045,653.373 430.878,654.373 431.5,655.5C 430.453,656.078 430.62,656.744 432,657.5C 432.399,657.272 432.565,656.938 432.5,656.5C 434.804,659.141 437.138,661.808 439.5,664.5C 438.453,665.078 438.62,665.744 440,666.5C 440.399,666.272 440.565,665.938 440.5,665.5C 442.804,668.141 445.138,670.808 447.5,673.5C 446.453,674.078 446.62,674.744 448,675.5C 448.399,675.272 448.565,674.938 448.5,674.5C 450.471,676.808 452.471,679.142 454.5,681.5C 454.062,681.435 453.728,681.601 453.5,682C 454.333,682.833 455.167,683.667 456,684.5C 456.399,684.272 456.565,683.938 456.5,683.5C 466.982,692.071 476.649,691.405 485.5,681.5C 488.283,673.755 490.117,665.755 491,657.5C 503.432,544.374 516.932,431.374 531.5,318.5C 531.389,306.222 525.222,299.556 513,298.5C 509.72,298.704 506.72,299.704 504,301.5C 506.852,285.895 509.852,270.228 513,254.5C 548.114,253.09 583.281,253.256 618.5,255C 636.254,257.695 652.921,263.362 668.5,272C 679.955,281.089 687.788,292.589 692,306.5C 694.437,318.893 695.937,331.393 696.5,344C 695.514,359.211 694.014,374.378 692,389.5C 676.997,461.511 661.997,533.511 647,605.5C 641.249,627.67 633.249,649.003 623,669.5C 618.753,677.89 613.587,685.557 607.5,692.5 Z"/></g>
<g><path style="opacity:1" fill="#b8fe65" d="M 773.5,493.5 C 772.087,496.219 771.42,499.219 771.5,502.5C 763.337,539.154 755.17,575.821 747,612.5C 738.286,647.101 726.953,680.768 713,713.5C 683.781,776.712 635.281,816.545 567.5,833C 550.94,836.26 534.273,838.76 517.5,840.5C 424.516,842.347 331.516,843.014 238.5,842.5C 238.5,817.167 238.5,791.833 238.5,766.5C 259.833,766.5 281.167,766.5 302.5,766.5C 305.879,747.983 310.046,729.649 315,711.5C 316.682,708.136 318.349,704.802 320,701.5C 337,674.833 354,648.167 371,621.5C 375.549,615.033 380.549,609.033 386,603.5C 395.332,612.168 403.999,621.501 412,631.5C 412.167,633.167 412.333,634.833 412.5,636.5C 403.178,679.786 394.178,723.119 385.5,766.5C 419.835,766.667 454.168,766.5 488.5,766C 515.365,764.028 541.365,758.361 566.5,749C 595.307,735.195 618.141,714.695 635,687.5C 651.149,657.19 662.815,625.19 670,591.5C 678.345,551.123 686.845,510.79 695.5,470.5C 697.815,466.587 698.815,462.254 698.5,457.5C 702.848,432.434 707.682,407.434 713,382.5C 713.867,370.667 714.7,358.834 715.5,347C 714.964,336.478 714.131,325.978 713,315.5C 710.109,298.806 704.109,283.473 695,269.5C 682.279,256.385 667.113,247.219 649.5,242C 639.327,239.198 628.993,237.365 618.5,236.5C 610.395,234.824 602.062,234.157 593.5,234.5C 561.668,233.56 529.668,232.894 497.5,232.5C 494.004,251.153 490.504,269.819 487,288.5C 484.976,297.929 482.643,307.262 480,316.5C 449.21,333.563 418.543,350.896 388,368.5C 387.5,368.333 387,368.167 386.5,368C 396.856,323.07 406.19,277.904 414.5,232.5C 393.5,232.5 372.5,232.5 351.5,232.5C 351.5,207.5 351.5,182.5 351.5,157.5C 444.817,156.146 538.15,156.313 631.5,158C 673.426,161.744 711.092,176.077 744.5,201C 775.991,229.375 793.825,264.875 798,307.5C 799.799,331.192 799.465,354.859 797,378.5C 790.273,417.072 782.44,455.405 773.5,493.5 Z"/></g>
<g><path style="opacity:0.004" fill="#000000" d="M 745.5,176.5 C 746.833,177.167 746.833,177.167 745.5,176.5 Z"/></g>
<g><path style="opacity:0.004" fill="#000000" d="M 753.5,182.5 C 754.833,183.167 754.833,183.167 753.5,182.5 Z"/></g>
<g><path style="opacity:0.004" fill="#000000" d="M 780.5,209.5 C 781.833,210.167 781.833,210.167 780.5,209.5 Z"/></g>
<g><path style="opacity:0.004" fill="#000000" d="M 795.5,232.5 C 796.833,233.167 796.833,233.167 795.5,232.5 Z"/></g>
<g><path style="opacity:1" fill="#3f5033" d="M 593.5,234.5 C 602.062,234.157 610.395,234.824 618.5,236.5C 609.983,236.268 601.65,235.601 593.5,234.5 Z"/></g>
<g><path style="opacity:1" fill="#fcfcfc" d="M 497.5,451.5 C 496.275,456.29 495.608,461.29 495.5,466.5C 493.582,483.509 491.582,500.509 489.5,517.5C 488.275,522.29 487.608,527.29 487.5,532.5C 482.072,577.829 476.739,623.162 471.5,668.5C 468.348,669.041 465.848,668.041 464,665.5C 437.86,634.894 411.027,604.894 383.5,575.5C 354.171,618.82 325.338,662.487 297,706.5C 275.967,694.431 255.801,681.264 236.5,667C 264.561,622.439 293.227,578.273 322.5,534.5C 286.919,523.028 251.252,511.862 215.5,501C 210.413,500.136 205.413,498.97 200.5,497.5C 200.799,494.358 202.466,492.191 205.5,491C 307.96,433.232 410.46,375.399 513,317.5C 507.701,362.099 502.535,406.766 497.5,451.5 Z"/></g>
<g><path style="opacity:0.004" fill="#000000" d="M 354.5,386.5 C 353.833,385.167 353.833,385.167 354.5,386.5 Z"/></g>
<g><path style="opacity:0.004" fill="#000000" d="M 329.5,401.5 C 328.833,400.167 328.833,400.167 329.5,401.5 Z"/></g>
<g><path style="opacity:0.004" fill="#000000" d="M 313.5,410.5 C 312.833,409.167 312.833,409.167 313.5,410.5 Z"/></g>
<g><path style="opacity:1" fill="#696a70" d="M 497.5,451.5 C 497.698,456.75 497.031,461.75 495.5,466.5C 495.608,461.29 496.275,456.29 497.5,451.5 Z"/></g>
<g><path style="opacity:1" fill="#8bba53" d="M 698.5,457.5 C 698.815,462.254 697.815,466.587 695.5,470.5C 695.74,465.88 696.74,461.547 698.5,457.5 Z"/></g>
<g><path style="opacity:0.004" fill="#000000" d="M 194.5,476.5 C 193.833,475.167 193.833,475.167 194.5,476.5 Z"/></g>
<g><path style="opacity:1" fill="#618041" d="M 773.5,493.5 C 773.58,496.781 772.913,499.781 771.5,502.5C 771.42,499.219 772.087,496.219 773.5,493.5 Z"/></g>
<g><path style="opacity:1" fill="#5e5f65" d="M 489.5,517.5 C 489.698,522.75 489.031,527.75 487.5,532.5C 487.608,527.29 488.275,522.29 489.5,517.5 Z"/></g>
<g><path style="opacity:0.004" fill="#000000" d="M 289.5,552.5 C 288.833,551.167 288.833,551.167 289.5,552.5 Z"/></g>
<g><path style="opacity:0.004" fill="#000000" d="M 279.5,567.5 C 278.833,566.167 278.833,566.167 279.5,567.5 Z"/></g>
<g><path style="opacity:0.004" fill="#000000" d="M 262.5,593.5 C 261.833,592.167 261.833,592.167 262.5,593.5 Z"/></g>
<g><path style="opacity:0.004" fill="#000000" d="M 246.5,618.5 C 245.833,617.167 245.833,617.167 246.5,618.5 Z"/></g>
<g><path style="opacity:0.004" fill="#000000" d="M 229.5,644.5 C 228.833,643.167 228.833,643.167 229.5,644.5 Z"/></g>
<g><path style="opacity:0.004" fill="#000000" d="M 237.5,690.5 C 236.833,691.167 236.833,691.167 237.5,690.5 Z"/></g>
<g><path style="opacity:0.004" fill="#000000" d="M 262.5,706.5 C 261.833,707.167 261.833,707.167 262.5,706.5 Z"/></g>
<g><path style="opacity:0.004" fill="#000000" d="M 287.5,722.5 C 286.833,723.167 286.833,723.167 287.5,722.5 Z"/></g>
<g><path style="opacity:0.004" fill="#000000" d="M 711.5,755.5 C 712.833,756.167 712.833,756.167 711.5,755.5 Z"/></g>
<g><path style="opacity:0.004" fill="#000000" d="M 705.5,764.5 C 706.833,765.167 706.833,765.167 705.5,764.5 Z"/></g>
<g><path style="opacity:0.004" fill="#000000" d="M 652.5,816.5 C 653.833,817.167 653.833,817.167 652.5,816.5 Z"/></g>
<g><path style="opacity:0.004" fill="#000000" d="M 644.5,821.5 C 645.833,822.167 645.833,822.167 644.5,821.5 Z"/></g>
<g><path style="opacity:1" fill="#57733d" d="M 517.5,840.5 C 502.371,842.147 487.038,842.98 471.5,843C 393.666,843.832 315.999,843.666 238.5,842.5C 331.516,843.014 424.516,842.347 517.5,840.5 Z"/></g>
</svg>
